<?xml version="1.0" encoding="utf-8" standalone="no"?>
<!DOCTYPE svg PUBLIC "-//W3C//DTD SVG 1.1//EN"
  "http://www.w3.org/Graphics/SVG/1.1/DTD/svg11.dtd">
<svg xmlns:xlink="http://www.w3.org/1999/xlink" width="468pt" height="252pt" viewBox="0 0 468 252" xmlns="http://www.w3.org/2000/svg" version="1.1">
 <metadata>
  <rdf:RDF xmlns:dc="http://purl.org/dc/elements/1.1/" xmlns:cc="http://creativecommons.org/ns#" xmlns:rdf="http://www.w3.org/1999/02/22-rdf-syntax-ns#">
   <cc:Work>
    <dc:type rdf:resource="http://purl.org/dc/dcmitype/StillImage"/>
    <dc:date>2026-10-01T16:24:19.324570</dc:date>
    <dc:format>image/svg+xml</dc:format>
    <dc:creator>
     <cc:Agent>
      <dc:title>Matplotlib v3.11.2, https://matplotlib.org/</dc:title>
     </cc:Agent>
    </dc:creator>
   </cc:Work>
  </rdf:RDF>
 </metadata>
 <defs>
  <style type="text/css">*{stroke-linejoin: round; stroke-linecap: butt}</style>
 </defs>
 <g id="figure_1">
  <g id="patch_1">
   <path d="M 0 252 
L 468 252 
L 468 0 
L 0 0 
z
" style="fill: #ffffff"/>
  </g>
  <g id="axes_1">
   <g id="patch_2">
    <path d="M 38.602344 210.2 
L 457.2 210.2 
L 457.2 26.16 
L 38.602344 26.16 
z
" style="fill: #ffffff"/>
   </g>
   <g id="matplotlib.axis_1">
    <g id="xtick_1">
     <g id="line2d_1">
      <path d="M 57.62951 210.2 
L 57.62951 26.16 
" clip-path="url(#pfeee2de8e0)" style="fill: none; stroke: #b0b0b0; stroke-opacity: 0.2; stroke-width: 0.8; stroke-linecap: square"/>
     </g>
     <g id="line2d_2">
      <defs>
       <path id="mf01d554632" d="M 0 0 
L 0 3.5 
" style="stroke: #000000; stroke-width: 0.8"/>
      </defs>
      <g>
       <use xlink:href="#mf01d554632" x="57.62951" y="210.2" style="stroke: #000000; stroke-width: 0.8"/>
      </g>
     </g>
     <g id="text_1">
      <!-- 0 -->
      <g transform="translate(54.44826 224.797656) scale(0.1 -0.1)">
       <defs>
        <path id="DejaVuSans-13" d="M 2034 4250 
Q 1547 4250 1301 3770 
Q 1056 3291 1056 2328 
Q 1056 1369 1301 889 
Q 1547 409 2034 409 
Q 2525 409 2770 889 
Q 3016 1369 3016 2328 
Q 3016 3291 2770 3770 
Q 2525 4250 2034 4250 
z
M 2034 4750 
Q 2819 4750 3233 4129 
Q 3647 3509 3647 2328 
Q 3647 1150 3233 529 
Q 2819 -91 2034 -91 
Q 1250 -91 836 529 
Q 422 1150 422 2328 
Q 422 3509 836 4129 
Q 1250 4750 2034 4750 
z
" transform="scale(0.015625)"/>
       </defs>
       <use xlink:href="#DejaVuSans-13"/>
      </g>
     </g>
    </g>
    <g id="xtick_2">
     <g id="line2d_3">
      <path d="M 142.194693 210.2 
L 142.194693 26.16 
" clip-path="url(#pfeee2de8e0)" style="fill: none; stroke: #b0b0b0; stroke-opacity: 0.2; stroke-width: 0.8; stroke-linecap: square"/>
     </g>
     <g id="line2d_4">
      <g>
       <use xlink:href="#mf01d554632" x="142.194693" y="210.2" style="stroke: #000000; stroke-width: 0.8"/>
      </g>
     </g>
     <g id="text_2">
      <!-- 2 -->
      <g transform="translate(139.013443 224.797656) scale(0.1 -0.1)">
       <defs>
        <path id="DejaVuSans-15" d="M 1228 531 
L 3431 531 
L 3431 0 
L 469 0 
L 469 531 
Q 828 903 1448 1529 
Q 2069 2156 2228 2338 
Q 2531 2678 2651 2914 
Q 2772 3150 2772 3378 
Q 2772 3750 2511 3984 
Q 2250 4219 1831 4219 
Q 1534 4219 1204 4116 
Q 875 4013 500 3803 
L 500 4441 
Q 881 4594 1212 4672 
Q 1544 4750 1819 4750 
Q 2544 4750 2975 4387 
Q 3406 4025 3406 3419 
Q 3406 3131 3298 2873 
Q 3191 2616 2906 2266 
Q 2828 2175 2409 1742 
Q 1991 1309 1228 531 
z
" transform="scale(0.015625)"/>
       </defs>
       <use xlink:href="#DejaVuSans-15"/>
      </g>
     </g>
    </g>
    <g id="xtick_3">
     <g id="line2d_5">
      <path d="M 226.759876 210.2 
L 226.759876 26.16 
" clip-path="url(#pfeee2de8e0)" style="fill: none; stroke: #b0b0b0; stroke-opacity: 0.2; stroke-width: 0.8; stroke-linecap: square"/>
     </g>
     <g id="line2d_6">
      <g>
       <use xlink:href="#mf01d554632" x="226.759876" y="210.2" style="stroke: #000000; stroke-width: 0.8"/>
      </g>
     </g>
     <g id="text_3">
      <!-- 4 -->
      <g transform="translate(223.578626 224.797656) scale(0.1 -0.1)">
       <defs>
        <path id="DejaVuSans-17" d="M 2419 4116 
L 825 1625 
L 2419 1625 
L 2419 4116 
z
M 2253 4666 
L 3047 4666 
L 3047 1625 
L 3713 1625 
L 3713 1100 
L 3047 1100 
L 3047 0 
L 2419 0 
L 2419 1100 
L 313 1100 
L 313 1709 
L 2253 4666 
z
" transform="scale(0.015625)"/>
       </defs>
       <use xlink:href="#DejaVuSans-17"/>
      </g>
     </g>
    </g>
    <g id="xtick_4">
     <g id="line2d_7">
      <path d="M 311.325059 210.2 
L 311.325059 26.16 
" clip-path="url(#pfeee2de8e0)" style="fill: none; stroke: #b0b0b0; stroke-opacity: 0.2; stroke-width: 0.8; stroke-linecap: square"/>
     </g>
     <g id="line2d_8">
      <g>
       <use xlink:href="#mf01d554632" x="311.325059" y="210.2" style="stroke: #000000; stroke-width: 0.8"/>
      </g>
     </g>
     <g id="text_4">
      <!-- 6 -->
      <g transform="translate(308.143809 224.797656) scale(0.1 -0.1)">
       <defs>
        <path id="DejaVuSans-19" d="M 2113 2584 
Q 1688 2584 1439 2293 
Q 1191 2003 1191 1497 
Q 1191 994 1439 701 
Q 1688 409 2113 409 
Q 2538 409 2786 701 
Q 3034 994 3034 1497 
Q 3034 2003 2786 2293 
Q 2538 2584 2113 2584 
z
M 3366 4563 
L 3366 3988 
Q 3128 4100 2886 4159 
Q 2644 4219 2406 4219 
Q 1781 4219 1451 3797 
Q 1122 3375 1075 2522 
Q 1259 2794 1537 2939 
Q 1816 3084 2150 3084 
Q 2853 3084 3261 2657 
Q 3669 2231 3669 1497 
Q 3669 778 3244 343 
Q 2819 -91 2113 -91 
Q 1303 -91 875 529 
Q 447 1150 447 2328 
Q 447 3434 972 4092 
Q 1497 4750 2381 4750 
Q 2619 4750 2861 4703 
Q 3103 4656 3366 4563 
z
" transform="scale(0.015625)"/>
       </defs>
       <use xlink:href="#DejaVuSans-19"/>
      </g>
     </g>
    </g>
    <g id="xtick_5">
     <g id="line2d_9">
      <path d="M 395.890242 210.2 
L 395.890242 26.16 
" clip-path="url(#pfeee2de8e0)" style="fill: none; stroke: #b0b0b0; stroke-opacity: 0.2; stroke-width: 0.8; stroke-linecap: square"/>
     </g>
     <g id="line2d_10">
      <g>
       <use xlink:href="#mf01d554632" x="395.890242" y="210.2" style="stroke: #000000; stroke-width: 0.8"/>
      </g>
     </g>
     <g id="text_5">
      <!-- 8 -->
      <g transform="translate(392.708992 224.797656) scale(0.1 -0.1)">
       <defs>
        <path id="DejaVuSans-1b" d="M 2034 2216 
Q 1584 2216 1326 1975 
Q 1069 1734 1069 1313 
Q 1069 891 1326 650 
Q 1584 409 2034 409 
Q 2484 409 2743 651 
Q 3003 894 3003 1313 
Q 3003 1734 2745 1975 
Q 2488 2216 2034 2216 
z
M 1403 2484 
Q 997 2584 770 2862 
Q 544 3141 544 3541 
Q 544 4100 942 4425 
Q 1341 4750 2034 4750 
Q 2731 4750 3128 4425 
Q 3525 4100 3525 3541 
Q 3525 3141 3298 2862 
Q 3072 2584 2669 2484 
Q 3125 2378 3379 2068 
Q 3634 1759 3634 1313 
Q 3634 634 3220 271 
Q 2806 -91 2034 -91 
Q 1263 -91 848 271 
Q 434 634 434 1313 
Q 434 1759 690 2068 
Q 947 2378 1403 2484 
z
M 1172 3481 
Q 1172 3119 1398 2916 
Q 1625 2713 2034 2713 
Q 2441 2713 2670 2916 
Q 2900 3119 2900 3481 
Q 2900 3844 2670 4047 
Q 2441 4250 2034 4250 
Q 1625 4250 1398 4047 
Q 1172 3844 1172 3481 
z
" transform="scale(0.015625)"/>
       </defs>
       <use xlink:href="#DejaVuSans-1b"/>
      </g>
     </g>
    </g>
    <g id="text_6">
     <!-- 5 torso states x 2 arms -->
     <g transform="translate(190.117578 238.797656) scale(0.1 -0.1)">
      <defs>
       <path id="DejaVuSans-18" d="M 691 4666 
L 3169 4666 
L 3169 4134 
L 1269 4134 
L 1269 2991 
Q 1406 3038 1543 3061 
Q 1681 3084 1819 3084 
Q 2600 3084 3056 2656 
Q 3513 2228 3513 1497 
Q 3513 744 3044 326 
Q 2575 -91 1722 -91 
Q 1428 -91 1123 -41 
Q 819 9 494 109 
L 494 744 
Q 775 591 1075 516 
Q 1375 441 1709 441 
Q 2250 441 2565 725 
Q 2881 1009 2881 1497 
Q 2881 1984 2565 2268 
Q 2250 2553 1709 2553 
Q 1456 2553 1204 2497 
Q 953 2441 691 2322 
L 691 4666 
z
" transform="scale(0.015625)"/>
       <path id="DejaVuSans-3" transform="scale(0.015625)"/>
       <path id="DejaVuSans-57" d="M 1172 4494 
L 1172 3500 
L 2356 3500 
L 2356 3053 
L 1172 3053 
L 1172 1153 
Q 1172 725 1289 603 
Q 1406 481 1766 481 
L 2356 481 
L 2356 0 
L 1766 0 
Q 1100 0 847 248 
Q 594 497 594 1153 
L 594 3053 
L 172 3053 
L 172 3500 
L 594 3500 
L 594 4494 
L 1172 4494 
z
" transform="scale(0.015625)"/>
       <path id="DejaVuSans-52" d="M 1959 3097 
Q 1497 3097 1228 2736 
Q 959 2375 959 1747 
Q 959 1119 1226 758 
Q 1494 397 1959 397 
Q 2419 397 2687 759 
Q 2956 1122 2956 1747 
Q 2956 2369 2687 2733 
Q 2419 3097 1959 3097 
z
M 1959 3584 
Q 2709 3584 3137 3096 
Q 3566 2609 3566 1747 
Q 3566 888 3137 398 
Q 2709 -91 1959 -91 
Q 1206 -91 779 398 
Q 353 888 353 1747 
Q 353 2609 779 3096 
Q 1206 3584 1959 3584 
z
" transform="scale(0.015625)"/>
       <path id="DejaVuSans-55" d="M 2631 2963 
Q 2534 3019 2420 3045 
Q 2306 3072 2169 3072 
Q 1681 3072 1420 2755 
Q 1159 2438 1159 1844 
L 1159 0 
L 581 0 
L 581 3500 
L 1159 3500 
L 1159 2956 
Q 1341 3275 1631 3429 
Q 1922 3584 2338 3584 
Q 2397 3584 2469 3576 
Q 2541 3569 2628 3553 
L 2631 2963 
z
" transform="scale(0.015625)"/>
       <path id="DejaVuSans-56" d="M 2834 3397 
L 2834 2853 
Q 2591 2978 2328 3040 
Q 2066 3103 1784 3103 
Q 1356 3103 1142 2972 
Q 928 2841 928 2578 
Q 928 2378 1081 2264 
Q 1234 2150 1697 2047 
L 1894 2003 
Q 2506 1872 2764 1633 
Q 3022 1394 3022 966 
Q 3022 478 2636 193 
Q 2250 -91 1575 -91 
Q 1294 -91 989 -36 
Q 684 19 347 128 
L 347 722 
Q 666 556 975 473 
Q 1284 391 1588 391 
Q 1994 391 2212 530 
Q 2431 669 2431 922 
Q 2431 1156 2273 1281 
Q 2116 1406 1581 1522 
L 1381 1569 
Q 847 1681 609 1914 
Q 372 2147 372 2553 
Q 372 3047 722 3315 
Q 1072 3584 1716 3584 
Q 2034 3584 2315 3537 
Q 2597 3491 2834 3397 
z
" transform="scale(0.015625)"/>
       <path id="DejaVuSans-44" d="M 2194 1759 
Q 1497 1759 1228 1600 
Q 959 1441 959 1056 
Q 959 750 1161 570 
Q 1363 391 1709 391 
Q 2188 391 2477 730 
Q 2766 1069 2766 1631 
L 2766 1759 
L 2194 1759 
z
M 3341 1997 
L 3341 0 
L 2766 0 
L 2766 531 
Q 2569 213 2275 61 
Q 1981 -91 1556 -91 
Q 1019 -91 701 211 
Q 384 513 384 1019 
Q 384 1609 779 1909 
Q 1175 2209 1959 2209 
L 2766 2209 
L 2766 2266 
Q 2766 2663 2505 2880 
Q 2244 3097 1772 3097 
Q 1472 3097 1187 3025 
Q 903 2953 641 2809 
L 641 3341 
Q 956 3463 1253 3523 
Q 1550 3584 1831 3584 
Q 2591 3584 2966 3190 
Q 3341 2797 3341 1997 
z
" transform="scale(0.015625)"/>
       <path id="DejaVuSans-48" d="M 3597 1894 
L 3597 1613 
L 953 1613 
Q 991 1019 1311 708 
Q 1631 397 2203 397 
Q 2534 397 2845 478 
Q 3156 559 3463 722 
L 3463 178 
Q 3153 47 2828 -22 
Q 2503 -91 2169 -91 
Q 1331 -91 842 396 
Q 353 884 353 1716 
Q 353 2575 817 3079 
Q 1281 3584 2069 3584 
Q 2775 3584 3186 3129 
Q 3597 2675 3597 1894 
z
M 3022 2063 
Q 3016 2534 2758 2815 
Q 2500 3097 2075 3097 
Q 1594 3097 1305 2825 
Q 1016 2553 972 2059 
L 3022 2063 
z
" transform="scale(0.015625)"/>
       <path id="DejaVuSans-5b" d="M 3513 3500 
L 2247 1797 
L 3578 0 
L 2900 0 
L 1881 1375 
L 863 0 
L 184 0 
L 1544 1831 
L 300 3500 
L 978 3500 
L 1906 2253 
L 2834 3500 
L 3513 3500 
z
" transform="scale(0.015625)"/>
       <path id="DejaVuSans-50" d="M 3328 2828 
Q 3544 3216 3844 3400 
Q 4144 3584 4550 3584 
Q 5097 3584 5394 3201 
Q 5691 2819 5691 2113 
L 5691 0 
L 5113 0 
L 5113 2094 
Q 5113 2597 4934 2840 
Q 4756 3084 4391 3084 
Q 3944 3084 3684 2787 
Q 3425 2491 3425 1978 
L 3425 0 
L 2847 0 
L 2847 2094 
Q 2847 2600 2669 2842 
Q 2491 3084 2119 3084 
Q 1678 3084 1418 2786 
Q 1159 2488 1159 1978 
L 1159 0 
L 581 0 
L 581 3500 
L 1159 3500 
L 1159 2956 
Q 1356 3278 1631 3431 
Q 1906 3584 2284 3584 
Q 2666 3584 2933 3390 
Q 3200 3197 3328 2828 
z
" transform="scale(0.015625)"/>
      </defs>
      <use xlink:href="#DejaVuSans-18"/>
      <use xlink:href="#DejaVuSans-3" transform="translate(63.625 0)"/>
      <use xlink:href="#DejaVuSans-57" transform="translate(95.40625 0)"/>
      <use xlink:href="#DejaVuSans-52" transform="translate(134.609375 0)"/>
      <use xlink:href="#DejaVuSans-55" transform="translate(195.796875 0)"/>
      <use xlink:href="#DejaVuSans-56" transform="translate(236.90625 0)"/>
      <use xlink:href="#DejaVuSans-52" transform="translate(289 0)"/>
      <use xlink:href="#DejaVuSans-3" transform="translate(350.1875 0)"/>
      <use xlink:href="#DejaVuSans-56" transform="translate(381.96875 0)"/>
      <use xlink:href="#DejaVuSans-57" transform="translate(434.0625 0)"/>
      <use xlink:href="#DejaVuSans-44" transform="translate(473.265625 0)"/>
      <use xlink:href="#DejaVuSans-57" transform="translate(534.546875 0)"/>
      <use xlink:href="#DejaVuSans-48" transform="translate(573.75 0)"/>
      <use xlink:href="#DejaVuSans-56" transform="translate(635.28125 0)"/>
      <use xlink:href="#DejaVuSans-3" transform="translate(687.375 0)"/>
      <use xlink:href="#DejaVuSans-5b" transform="translate(719.15625 0)"/>
      <use xlink:href="#DejaVuSans-3" transform="translate(778.34375 0)"/>
      <use xlink:href="#DejaVuSans-15" transform="translate(810.125 0)"/>
      <use xlink:href="#DejaVuSans-3" transform="translate(873.75 0)"/>
      <use xlink:href="#DejaVuSans-44" transform="translate(905.53125 0)"/>
      <use xlink:href="#DejaVuSans-55" transform="translate(966.8125 0)"/>
      <use xlink:href="#DejaVuSans-50" transform="translate(1006.171875 0)"/>
      <use xlink:href="#DejaVuSans-56" transform="translate(1103.578125 0)"/>
     </g>
    </g>
   </g>
   <g id="matplotlib.axis_2">
    <g id="ytick_1">
     <g id="line2d_11">
      <path d="M 38.602344 201.850516 
L 457.2 201.850516 
" clip-path="url(#pfeee2de8e0)" style="fill: none; stroke: #b0b0b0; stroke-opacity: 0.2; stroke-width: 0.8; stroke-linecap: square"/>
     </g>
     <g id="line2d_12">
      <defs>
       <path id="m01d6473c08" d="M 0 0 
L -3.5 0 
" style="stroke: #000000; stroke-width: 0.8"/>
      </defs>
      <g>
       <use xlink:href="#m01d6473c08" x="38.602344" y="201.850516" style="stroke: #000000; stroke-width: 0.8"/>
      </g>
     </g>
     <g id="text_7">
      <!-- 0 -->
      <g transform="translate(25.239844 205.649344) scale(0.1 -0.1)">
       <use xlink:href="#DejaVuSans-13"/>
      </g>
     </g>
    </g>
    <g id="ytick_2">
     <g id="line2d_13">
      <path d="M 38.602344 168.388667 
L 457.2 168.388667 
" clip-path="url(#pfeee2de8e0)" style="fill: none; stroke: #b0b0b0; stroke-opacity: 0.2; stroke-width: 0.8; stroke-linecap: square"/>
     </g>
     <g id="line2d_14">
      <g>
       <use xlink:href="#m01d6473c08" x="38.602344" y="168.388667" style="stroke: #000000; stroke-width: 0.8"/>
      </g>
     </g>
     <g id="text_8">
      <!-- 1 -->
      <g transform="translate(25.239844 172.187495) scale(0.1 -0.1)">
       <defs>
        <path id="DejaVuSans-14" d="M 794 531 
L 1825 531 
L 1825 4091 
L 703 3866 
L 703 4441 
L 1819 4666 
L 2450 4666 
L 2450 531 
L 3481 531 
L 3481 0 
L 794 0 
L 794 531 
z
" transform="scale(0.015625)"/>
       </defs>
       <use xlink:href="#DejaVuSans-14"/>
      </g>
     </g>
    </g>
    <g id="ytick_3">
     <g id="line2d_15">
      <path d="M 38.602344 134.926818 
L 457.2 134.926818 
" clip-path="url(#pfeee2de8e0)" style="fill: none; stroke: #b0b0b0; stroke-opacity: 0.2; stroke-width: 0.8; stroke-linecap: square"/>
     </g>
     <g id="line2d_16">
      <g>
       <use xlink:href="#m01d6473c08" x="38.602344" y="134.926818" style="stroke: #000000; stroke-width: 0.8"/>
      </g>
     </g>
     <g id="text_9">
      <!-- 2 -->
      <g transform="translate(25.239844 138.725646) scale(0.1 -0.1)">
       <use xlink:href="#DejaVuSans-15"/>
      </g>
     </g>
    </g>
    <g id="ytick_4">
     <g id="line2d_17">
      <path d="M 38.602344 101.464968 
L 457.2 101.464968 
" clip-path="url(#pfeee2de8e0)" style="fill: none; stroke: #b0b0b0; stroke-opacity: 0.2; stroke-width: 0.8; stroke-linecap: square"/>
     </g>
     <g id="line2d_18">
      <g>
       <use xlink:href="#m01d6473c08" x="38.602344" y="101.464968" style="stroke: #000000; stroke-width: 0.8"/>
      </g>
     </g>
     <g id="text_10">
      <!-- 3 -->
      <g transform="translate(25.239844 105.263797) scale(0.1 -0.1)">
       <defs>
        <path id="DejaVuSans-16" d="M 2597 2516 
Q 3050 2419 3304 2112 
Q 3559 1806 3559 1356 
Q 3559 666 3084 287 
Q 2609 -91 1734 -91 
Q 1441 -91 1130 -33 
Q 819 25 488 141 
L 488 750 
Q 750 597 1062 519 
Q 1375 441 1716 441 
Q 2309 441 2620 675 
Q 2931 909 2931 1356 
Q 2931 1769 2642 2001 
Q 2353 2234 1838 2234 
L 1294 2234 
L 1294 2753 
L 1863 2753 
Q 2328 2753 2575 2939 
Q 2822 3125 2822 3475 
Q 2822 3834 2567 4026 
Q 2313 4219 1838 4219 
Q 1578 4219 1281 4162 
Q 984 4106 628 3988 
L 628 4550 
Q 988 4650 1302 4700 
Q 1616 4750 1894 4750 
Q 2613 4750 3031 4423 
Q 3450 4097 3450 3541 
Q 3450 3153 3228 2886 
Q 3006 2619 2597 2516 
z
" transform="scale(0.015625)"/>
       </defs>
       <use xlink:href="#DejaVuSans-16"/>
      </g>
     </g>
    </g>
    <g id="ytick_5">
     <g id="line2d_19">
      <path d="M 38.602344 68.003119 
L 457.2 68.003119 
" clip-path="url(#pfeee2de8e0)" style="fill: none; stroke: #b0b0b0; stroke-opacity: 0.2; stroke-width: 0.8; stroke-linecap: square"/>
     </g>
     <g id="line2d_20">
      <g>
       <use xlink:href="#m01d6473c08" x="38.602344" y="68.003119" style="stroke: #000000; stroke-width: 0.8"/>
      </g>
     </g>
     <g id="text_11">
      <!-- 4 -->
      <g transform="translate(25.239844 71.801947) scale(0.1 -0.1)">
       <use xlink:href="#DejaVuSans-17"/>
      </g>
     </g>
    </g>
    <g id="ytick_6">
     <g id="line2d_21">
      <path d="M 38.602344 34.54127 
L 457.2 34.54127 
" clip-path="url(#pfeee2de8e0)" style="fill: none; stroke: #b0b0b0; stroke-opacity: 0.2; stroke-width: 0.8; stroke-linecap: square"/>
     </g>
     <g id="line2d_22">
      <g>
       <use xlink:href="#m01d6473c08" x="38.602344" y="34.54127" style="stroke: #000000; stroke-width: 0.8"/>
      </g>
     </g>
     <g id="text_12">
      <!-- 5 -->
      <g transform="translate(25.239844 38.340098) scale(0.1 -0.1)">
       <use xlink:href="#DejaVuSans-18"/>
      </g>
     </g>
    </g>
    <g id="text_13">
     <!-- TCP translation error (mm) -->
     <g transform="translate(18.8375 184.844844) rotate(-90) scale(0.1 -0.1)">
      <defs>
       <path id="DejaVuSans-37" d="M -19 4666 
L 3928 4666 
L 3928 4134 
L 2272 4134 
L 2272 0 
L 1638 0 
L 1638 4134 
L -19 4134 
L -19 4666 
z
" transform="scale(0.015625)"/>
       <path id="DejaVuSans-26" d="M 4122 4306 
L 4122 3641 
Q 3803 3938 3442 4084 
Q 3081 4231 2675 4231 
Q 1875 4231 1450 3742 
Q 1025 3253 1025 2328 
Q 1025 1406 1450 917 
Q 1875 428 2675 428 
Q 3081 428 3442 575 
Q 3803 722 4122 1019 
L 4122 359 
Q 3791 134 3420 21 
Q 3050 -91 2638 -91 
Q 1578 -91 968 557 
Q 359 1206 359 2328 
Q 359 3453 968 4101 
Q 1578 4750 2638 4750 
Q 3056 4750 3426 4639 
Q 3797 4528 4122 4306 
z
" transform="scale(0.015625)"/>
       <path id="DejaVuSans-33" d="M 1259 4147 
L 1259 2394 
L 2053 2394 
Q 2494 2394 2734 2622 
Q 2975 2850 2975 3272 
Q 2975 3691 2734 3919 
Q 2494 4147 2053 4147 
L 1259 4147 
z
M 628 4666 
L 2053 4666 
Q 2838 4666 3239 4311 
Q 3641 3956 3641 3272 
Q 3641 2581 3239 2228 
Q 2838 1875 2053 1875 
L 1259 1875 
L 1259 0 
L 628 0 
L 628 4666 
z
" transform="scale(0.015625)"/>
       <path id="DejaVuSans-51" d="M 3513 2113 
L 3513 0 
L 2938 0 
L 2938 2094 
Q 2938 2591 2744 2837 
Q 2550 3084 2163 3084 
Q 1697 3084 1428 2787 
Q 1159 2491 1159 1978 
L 1159 0 
L 581 0 
L 581 3500 
L 1159 3500 
L 1159 2956 
Q 1366 3272 1645 3428 
Q 1925 3584 2291 3584 
Q 2894 3584 3203 3211 
Q 3513 2838 3513 2113 
z
" transform="scale(0.015625)"/>
       <path id="DejaVuSans-4f" d="M 603 4863 
L 1178 4863 
L 1178 0 
L 603 0 
L 603 4863 
z
" transform="scale(0.015625)"/>
       <path id="DejaVuSans-4c" d="M 603 3500 
L 1178 3500 
L 1178 0 
L 603 0 
L 603 3500 
z
M 603 4863 
L 1178 4863 
L 1178 4134 
L 603 4134 
L 603 4863 
z
" transform="scale(0.015625)"/>
       <path id="DejaVuSans-b" d="M 1984 4856 
Q 1566 4138 1362 3434 
Q 1159 2731 1159 2009 
Q 1159 1288 1364 580 
Q 1569 -128 1984 -844 
L 1484 -844 
Q 1016 -109 783 600 
Q 550 1309 550 2009 
Q 550 2706 781 3412 
Q 1013 4119 1484 4856 
L 1984 4856 
z
" transform="scale(0.015625)"/>
       <path id="DejaVuSans-c" d="M 513 4856 
L 1013 4856 
Q 1481 4119 1714 3412 
Q 1947 2706 1947 2009 
Q 1947 1309 1714 600 
Q 1481 -109 1013 -844 
L 513 -844 
Q 928 -128 1133 580 
Q 1338 1288 1338 2009 
Q 1338 2731 1133 3434 
Q 928 4138 513 4856 
z
" transform="scale(0.015625)"/>
      </defs>
      <use xlink:href="#DejaVuSans-37"/>
      <use xlink:href="#DejaVuSans-26" transform="translate(55.21875 0)"/>
      <use xlink:href="#DejaVuSans-33" transform="translate(125.046875 0)"/>
      <use xlink:href="#DejaVuSans-3" transform="translate(185.34375 0)"/>
      <use xlink:href="#DejaVuSans-57" transform="translate(217.125 0)"/>
      <use xlink:href="#DejaVuSans-55" transform="translate(256.328125 0)"/>
      <use xlink:href="#DejaVuSans-44" transform="translate(297.4375 0)"/>
      <use xlink:href="#DejaVuSans-51" transform="translate(358.71875 0)"/>
      <use xlink:href="#DejaVuSans-56" transform="translate(422.09375 0)"/>
      <use xlink:href="#DejaVuSans-4f" transform="translate(474.1875 0)"/>
      <use xlink:href="#DejaVuSans-44" transform="translate(501.96875 0)"/>
      <use xlink:href="#DejaVuSans-57" transform="translate(563.25 0)"/>
      <use xlink:href="#DejaVuSans-4c" transform="translate(602.453125 0)"/>
      <use xlink:href="#DejaVuSans-52" transform="translate(630.234375 0)"/>
      <use xlink:href="#DejaVuSans-51" transform="translate(691.421875 0)"/>
      <use xlink:href="#DejaVuSans-3" transform="translate(754.796875 0)"/>
      <use xlink:href="#DejaVuSans-48" transform="translate(786.578125 0)"/>
      <use xlink:href="#DejaVuSans-55" transform="translate(848.109375 0)"/>
      <use xlink:href="#DejaVuSans-55" transform="translate(887.46875 0)"/>
      <use xlink:href="#DejaVuSans-52" transform="translate(926.375 0)"/>
      <use xlink:href="#DejaVuSans-55" transform="translate(987.5625 0)"/>
      <use xlink:href="#DejaVuSans-3" transform="translate(1028.671875 0)"/>
      <use xlink:href="#DejaVuSans-b" transform="translate(1060.453125 0)"/>
      <use xlink:href="#DejaVuSans-50" transform="translate(1099.46875 0)"/>
      <use xlink:href="#DejaVuSans-50" transform="translate(1196.875 0)"/>
      <use xlink:href="#DejaVuSans-c" transform="translate(1294.28125 0)"/>
     </g>
    </g>
   </g>
   <g id="line2d_23">
    <path d="M 57.62951 34.52547 
L 99.912101 34.525455 
L 142.194693 34.52547 
L 184.477285 34.525455 
L 226.759876 34.52547 
L 269.042468 34.525455 
L 311.325059 34.52547 
L 353.607651 34.525455 
L 395.890242 34.52547 
L 438.172834 34.525455 
" clip-path="url(#pfeee2de8e0)" style="fill: none; stroke: #e74c3c; stroke-width: 1.5; stroke-linecap: square"/>
    <defs>
     <path id="mcceee1ef26" d="M 0 3 
C 0.795609 3 1.55874 2.683901 2.12132 2.12132 
C 2.683901 1.55874 3 0.795609 3 0 
C 3 -0.795609 2.683901 -1.55874 2.12132 -2.12132 
C 1.55874 -2.683901 0.795609 -3 0 -3 
C -0.795609 -3 -1.55874 -2.683901 -2.12132 -2.12132 
C -2.683901 -1.55874 -3 -0.795609 -3 0 
C -3 0.795609 -2.683901 1.55874 -2.12132 2.12132 
C -1.55874 2.683901 -0.795609 3 0 3 
z
" style="stroke: #e74c3c"/>
    </defs>
    <g clip-path="url(#pfeee2de8e0)">
     <use xlink:href="#mcceee1ef26" x="57.62951" y="34.52547" style="fill: #e74c3c; stroke: #e74c3c"/>
     <use xlink:href="#mcceee1ef26" x="99.912101" y="34.525455" style="fill: #e74c3c; stroke: #e74c3c"/>
     <use xlink:href="#mcceee1ef26" x="142.194693" y="34.52547" style="fill: #e74c3c; stroke: #e74c3c"/>
     <use xlink:href="#mcceee1ef26" x="184.477285" y="34.525455" style="fill: #e74c3c; stroke: #e74c3c"/>
     <use xlink:href="#mcceee1ef26" x="226.759876" y="34.52547" style="fill: #e74c3c; stroke: #e74c3c"/>
     <use xlink:href="#mcceee1ef26" x="269.042468" y="34.525455" style="fill: #e74c3c; stroke: #e74c3c"/>
     <use xlink:href="#mcceee1ef26" x="311.325059" y="34.52547" style="fill: #e74c3c; stroke: #e74c3c"/>
     <use xlink:href="#mcceee1ef26" x="353.607651" y="34.525455" style="fill: #e74c3c; stroke: #e74c3c"/>
     <use xlink:href="#mcceee1ef26" x="395.890242" y="34.52547" style="fill: #e74c3c; stroke: #e74c3c"/>
     <use xlink:href="#mcceee1ef26" x="438.172834" y="34.525455" style="fill: #e74c3c; stroke: #e74c3c"/>
    </g>
   </g>
   <g id="line2d_24">
    <path d="M 57.62951 201.834545 
L 99.912101 201.83453 
L 142.194693 201.834545 
L 184.477285 201.83453 
L 226.759876 201.834545 
L 269.042468 201.83453 
L 311.325059 201.834545 
L 353.607651 201.83453 
L 395.890242 201.834545 
L 438.172834 201.83453 
" clip-path="url(#pfeee2de8e0)" style="fill: none; stroke: #27ae60; stroke-width: 1.5; stroke-linecap: square"/>
    <defs>
     <path id="m56b26c99d3" d="M 0 3 
C 0.795609 3 1.55874 2.683901 2.12132 2.12132 
C 2.683901 1.55874 3 0.795609 3 0 
C 3 -0.795609 2.683901 -1.55874 2.12132 -2.12132 
C 1.55874 -2.683901 0.795609 -3 0 -3 
C -0.795609 -3 -1.55874 -2.683901 -2.12132 -2.12132 
C -2.683901 -1.55874 -3 -0.795609 -3 0 
C -3 0.795609 -2.683901 1.55874 -2.12132 2.12132 
C -1.55874 2.683901 -0.795609 3 0 3 
z
" style="stroke: #27ae60"/>
    </defs>
    <g clip-path="url(#pfeee2de8e0)">
     <use xlink:href="#m56b26c99d3" x="57.62951" y="201.834545" style="fill: #27ae60; stroke: #27ae60"/>
     <use xlink:href="#m56b26c99d3" x="99.912101" y="201.83453" style="fill: #27ae60; stroke: #27ae60"/>
     <use xlink:href="#m56b26c99d3" x="142.194693" y="201.834545" style="fill: #27ae60; stroke: #27ae60"/>
     <use xlink:href="#m56b26c99d3" x="184.477285" y="201.83453" style="fill: #27ae60; stroke: #27ae60"/>
     <use xlink:href="#m56b26c99d3" x="226.759876" y="201.834545" style="fill: #27ae60; stroke: #27ae60"/>
     <use xlink:href="#m56b26c99d3" x="269.042468" y="201.83453" style="fill: #27ae60; stroke: #27ae60"/>
     <use xlink:href="#m56b26c99d3" x="311.325059" y="201.834545" style="fill: #27ae60; stroke: #27ae60"/>
     <use xlink:href="#m56b26c99d3" x="353.607651" y="201.83453" style="fill: #27ae60; stroke: #27ae60"/>
     <use xlink:href="#m56b26c99d3" x="395.890242" y="201.834545" style="fill: #27ae60; stroke: #27ae60"/>
     <use xlink:href="#m56b26c99d3" x="438.172834" y="201.83453" style="fill: #27ae60; stroke: #27ae60"/>
    </g>
   </g>
   <g id="patch_3">
    <path d="M 38.602344 210.2 
L 38.602344 26.16 
" style="fill: none; stroke: #000000; stroke-width: 0.8; stroke-linejoin: miter; stroke-linecap: square"/>
   </g>
   <g id="patch_4">
    <path d="M 457.2 210.2 
L 457.2 26.16 
" style="fill: none; stroke: #000000; stroke-width: 0.8; stroke-linejoin: miter; stroke-linecap: square"/>
   </g>
   <g id="patch_5">
    <path d="M 38.602344 210.2 
L 457.2 210.2 
" style="fill: none; stroke: #000000; stroke-width: 0.8; stroke-linejoin: miter; stroke-linecap: square"/>
   </g>
   <g id="patch_6">
    <path d="M 38.602344 26.16 
L 457.2 26.16 
" style="fill: none; stroke: #000000; stroke-width: 0.8; stroke-linejoin: miter; stroke-linecap: square"/>
   </g>
   <g id="text_14">
    <!-- Frame mismatch must not become a reachability label -->
    <g transform="translate(83.906172 20.16) scale(0.12 -0.12)">
     <defs>
      <path id="DejaVuSans-29" d="M 628 4666 
L 3309 4666 
L 3309 4134 
L 1259 4134 
L 1259 2759 
L 3109 2759 
L 3109 2228 
L 1259 2228 
L 1259 0 
L 628 0 
L 628 4666 
z
" transform="scale(0.015625)"/>
      <path id="DejaVuSans-46" d="M 3122 3366 
L 3122 2828 
Q 2878 2963 2633 3030 
Q 2388 3097 2138 3097 
Q 1578 3097 1268 2742 
Q 959 2388 959 1747 
Q 959 1106 1268 751 
Q 1578 397 2138 397 
Q 2388 397 2633 464 
Q 2878 531 3122 666 
L 3122 134 
Q 2881 22 2623 -34 
Q 2366 -91 2075 -91 
Q 1284 -91 818 406 
Q 353 903 353 1747 
Q 353 2603 823 3093 
Q 1294 3584 2113 3584 
Q 2378 3584 2631 3529 
Q 2884 3475 3122 3366 
z
" transform="scale(0.015625)"/>
      <path id="DejaVuSans-4b" d="M 3513 2113 
L 3513 0 
L 2938 0 
L 2938 2094 
Q 2938 2591 2744 2837 
Q 2550 3084 2163 3084 
Q 1697 3084 1428 2787 
Q 1159 2491 1159 1978 
L 1159 0 
L 581 0 
L 581 4863 
L 1159 4863 
L 1159 2956 
Q 1366 3272 1645 3428 
Q 1925 3584 2291 3584 
Q 2894 3584 3203 3211 
Q 3513 2838 3513 2113 
z
" transform="scale(0.015625)"/>
      <path id="DejaVuSans-58" d="M 544 1381 
L 544 3500 
L 1119 3500 
L 1119 1403 
Q 1119 906 1312 657 
Q 1506 409 1894 409 
Q 2359 409 2629 706 
Q 2900 1003 2900 1516 
L 2900 3500 
L 3475 3500 
L 3475 0 
L 2900 0 
L 2900 538 
Q 2691 219 2414 64 
Q 2138 -91 1772 -91 
Q 1169 -91 856 284 
Q 544 659 544 1381 
z
M 1991 3584 
L 1991 3584 
z
" transform="scale(0.015625)"/>
      <path id="DejaVuSans-45" d="M 3116 1747 
Q 3116 2381 2855 2742 
Q 2594 3103 2138 3103 
Q 1681 3103 1420 2742 
Q 1159 2381 1159 1747 
Q 1159 1113 1420 752 
Q 1681 391 2138 391 
Q 2594 391 2855 752 
Q 3116 1113 3116 1747 
z
M 1159 2969 
Q 1341 3281 1617 3432 
Q 1894 3584 2278 3584 
Q 2916 3584 3314 3078 
Q 3713 2572 3713 1747 
Q 3713 922 3314 415 
Q 2916 -91 2278 -91 
Q 1894 -91 1617 61 
Q 1341 213 1159 525 
L 1159 0 
L 581 0 
L 581 4863 
L 1159 4863 
L 1159 2969 
z
" transform="scale(0.015625)"/>
      <path id="DejaVuSans-5c" d="M 2059 -325 
Q 1816 -950 1584 -1140 
Q 1353 -1331 966 -1331 
L 506 -1331 
L 506 -850 
L 844 -850 
Q 1081 -850 1212 -737 
Q 1344 -625 1503 -206 
L 1606 56 
L 191 3500 
L 800 3500 
L 1894 763 
L 2988 3500 
L 3597 3500 
L 2059 -325 
z
" transform="scale(0.015625)"/>
     </defs>
     <use xlink:href="#DejaVuSans-29"/>
     <use xlink:href="#DejaVuSans-55" transform="translate(50.234375 0)"/>
     <use xlink:href="#DejaVuSans-44" transform="translate(91.34375 0)"/>
     <use xlink:href="#DejaVuSans-50" transform="translate(152.625 0)"/>
     <use xlink:href="#DejaVuSans-48" transform="translate(250.03125 0)"/>
     <use xlink:href="#DejaVuSans-3" transform="translate(311.5625 0)"/>
     <use xlink:href="#DejaVuSans-50" transform="translate(343.34375 0)"/>
     <use xlink:href="#DejaVuSans-4c" transform="translate(440.75 0)"/>
     <use xlink:href="#DejaVuSans-56" transform="translate(468.53125 0)"/>
     <use xlink:href="#DejaVuSans-50" transform="translate(520.625 0)"/>
     <use xlink:href="#DejaVuSans-44" transform="translate(618.03125 0)"/>
     <use xlink:href="#DejaVuSans-57" transform="translate(679.3125 0)"/>
     <use xlink:href="#DejaVuSans-46" transform="translate(718.515625 0)"/>
     <use xlink:href="#DejaVuSans-4b" transform="translate(773.5 0)"/>
     <use xlink:href="#DejaVuSans-3" transform="translate(836.875 0)"/>
     <use xlink:href="#DejaVuSans-50" transform="translate(868.65625 0)"/>
     <use xlink:href="#DejaVuSans-58" transform="translate(966.0625 0)"/>
     <use xlink:href="#DejaVuSans-56" transform="translate(1029.4375 0)"/>
     <use xlink:href="#DejaVuSans-57" transform="translate(1081.53125 0)"/>
     <use xlink:href="#DejaVuSans-3" transform="translate(1120.734375 0)"/>
     <use xlink:href="#DejaVuSans-51" transform="translate(1152.515625 0)"/>
     <use xlink:href="#DejaVuSans-52" transform="translate(1215.890625 0)"/>
     <use xlink:href="#DejaVuSans-57" transform="translate(1277.078125 0)"/>
     <use xlink:href="#DejaVuSans-3" transform="translate(1316.28125 0)"/>
     <use xlink:href="#DejaVuSans-45" transform="translate(1348.0625 0)"/>
     <use xlink:href="#DejaVuSans-48" transform="translate(1411.546875 0)"/>
     <use xlink:href="#DejaVuSans-46" transform="translate(1473.078125 0)"/>
     <use xlink:href="#DejaVuSans-52" transform="translate(1528.0625 0)"/>
     <use xlink:href="#DejaVuSans-50" transform="translate(1589.25 0)"/>
     <use xlink:href="#DejaVuSans-48" transform="translate(1686.65625 0)"/>
     <use xlink:href="#DejaVuSans-3" transform="translate(1748.1875 0)"/>
     <use xlink:href="#DejaVuSans-44" transform="translate(1779.96875 0)"/>
     <use xlink:href="#DejaVuSans-3" transform="translate(1841.25 0)"/>
     <use xlink:href="#DejaVuSans-55" transform="translate(1873.03125 0)"/>
     <use xlink:href="#DejaVuSans-48" transform="translate(1911.9375 0)"/>
     <use xlink:href="#DejaVuSans-44" transform="translate(1973.46875 0)"/>
     <use xlink:href="#DejaVuSans-46" transform="translate(2034.75 0)"/>
     <use xlink:href="#DejaVuSans-4b" transform="translate(2089.734375 0)"/>
     <use xlink:href="#DejaVuSans-44" transform="translate(2153.109375 0)"/>
     <use xlink:href="#DejaVuSans-45" transform="translate(2214.390625 0)"/>
     <use xlink:href="#DejaVuSans-4c" transform="translate(2277.875 0)"/>
     <use xlink:href="#DejaVuSans-4f" transform="translate(2305.65625 0)"/>
     <use xlink:href="#DejaVuSans-4c" transform="translate(2333.4375 0)"/>
     <use xlink:href="#DejaVuSans-57" transform="translate(2361.21875 0)"/>
     <use xlink:href="#DejaVuSans-5c" transform="translate(2400.421875 0)"/>
     <use xlink:href="#DejaVuSans-3" transform="translate(2459.609375 0)"/>
     <use xlink:href="#DejaVuSans-4f" transform="translate(2491.390625 0)"/>
     <use xlink:href="#DejaVuSans-44" transform="translate(2519.171875 0)"/>
     <use xlink:href="#DejaVuSans-45" transform="translate(2580.453125 0)"/>
     <use xlink:href="#DejaVuSans-48" transform="translate(2643.9375 0)"/>
     <use xlink:href="#DejaVuSans-4f" transform="translate(2705.46875 0)"/>
    </g>
   </g>
   <g id="legend_1">
    <g id="patch_7">
     <path d="M 243.86375 131.380625 
L 451.6 131.380625 
Q 453.2 131.380625 453.2 129.780625 
L 453.2 106.579375 
Q 453.2 104.979375 451.6 104.979375 
L 243.86375 104.979375 
Q 242.26375 104.979375 242.26375 106.579375 
L 242.26375 129.780625 
Q 242.26375 131.380625 243.86375 131.380625 
z
" style="fill: #ffffff; opacity: 0.8; stroke: #cccccc; stroke-linejoin: miter"/>
    </g>
    <g id="line2d_25">
     <path d="M 245.46375 111.458125 
L 253.46375 111.458125 
L 261.46375 111.458125 
" style="fill: none; stroke: #e74c3c; stroke-width: 1.5; stroke-linecap: square"/>
     <g>
      <use xlink:href="#mcceee1ef26" x="253.46375" y="111.458125" style="fill: #e74c3c; stroke: #e74c3c"/>
     </g>
    </g>
    <g id="text_15">
     <!-- Incorrect z=0 world frame -->
     <g transform="translate(267.86375 114.258125) scale(0.08 -0.08)">
      <defs>
       <path id="DejaVuSans-2c" d="M 628 4666 
L 1259 4666 
L 1259 0 
L 628 0 
L 628 4666 
z
" transform="scale(0.015625)"/>
       <path id="DejaVuSans-5d" d="M 353 3500 
L 3084 3500 
L 3084 2975 
L 922 459 
L 3084 459 
L 3084 0 
L 275 0 
L 275 525 
L 2438 3041 
L 353 3041 
L 353 3500 
z
" transform="scale(0.015625)"/>
       <path id="DejaVuSans-20" d="M 678 2906 
L 4684 2906 
L 4684 2381 
L 678 2381 
L 678 2906 
z
M 678 1631 
L 4684 1631 
L 4684 1100 
L 678 1100 
L 678 1631 
z
" transform="scale(0.015625)"/>
       <path id="DejaVuSans-5a" d="M 269 3500 
L 844 3500 
L 1563 769 
L 2278 3500 
L 2956 3500 
L 3675 769 
L 4391 3500 
L 4966 3500 
L 4050 0 
L 3372 0 
L 2619 2869 
L 1863 0 
L 1184 0 
L 269 3500 
z
" transform="scale(0.015625)"/>
       <path id="DejaVuSans-47" d="M 2906 2969 
L 2906 4863 
L 3481 4863 
L 3481 0 
L 2906 0 
L 2906 525 
Q 2725 213 2448 61 
Q 2172 -91 1784 -91 
Q 1150 -91 751 415 
Q 353 922 353 1747 
Q 353 2572 751 3078 
Q 1150 3584 1784 3584 
Q 2172 3584 2448 3432 
Q 2725 3281 2906 2969 
z
M 947 1747 
Q 947 1113 1208 752 
Q 1469 391 1925 391 
Q 2381 391 2643 752 
Q 2906 1113 2906 1747 
Q 2906 2381 2643 2742 
Q 2381 3103 1925 3103 
Q 1469 3103 1208 2742 
Q 947 2381 947 1747 
z
" transform="scale(0.015625)"/>
       <path id="DejaVuSans-49" d="M 2375 4863 
L 2375 4384 
L 1825 4384 
Q 1516 4384 1395 4259 
Q 1275 4134 1275 3809 
L 1275 3500 
L 2222 3500 
L 2222 3053 
L 1275 3053 
L 1275 0 
L 697 0 
L 697 3053 
L 147 3053 
L 147 3500 
L 697 3500 
L 697 3744 
Q 697 4328 969 4595 
Q 1241 4863 1831 4863 
L 2375 4863 
z
" transform="scale(0.015625)"/>
      </defs>
      <use xlink:href="#DejaVuSans-2c"/>
      <use xlink:href="#DejaVuSans-51" transform="translate(29.5 0)"/>
      <use xlink:href="#DejaVuSans-46" transform="translate(92.875 0)"/>
      <use xlink:href="#DejaVuSans-52" transform="translate(147.859375 0)"/>
      <use xlink:href="#DejaVuSans-55" transform="translate(209.046875 0)"/>
      <use xlink:href="#DejaVuSans-55" transform="translate(248.40625 0)"/>
      <use xlink:href="#DejaVuSans-48" transform="translate(287.3125 0)"/>
      <use xlink:href="#DejaVuSans-46" transform="translate(348.84375 0)"/>
      <use xlink:href="#DejaVuSans-57" transform="translate(403.828125 0)"/>
      <use xlink:href="#DejaVuSans-3" transform="translate(443.03125 0)"/>
      <use xlink:href="#DejaVuSans-5d" transform="translate(474.8125 0)"/>
      <use xlink:href="#DejaVuSans-20" transform="translate(527.296875 0)"/>
      <use xlink:href="#DejaVuSans-13" transform="translate(611.09375 0)"/>
      <use xlink:href="#DejaVuSans-3" transform="translate(674.71875 0)"/>
      <use xlink:href="#DejaVuSans-5a" transform="translate(706.5 0)"/>
      <use xlink:href="#DejaVuSans-52" transform="translate(788.28125 0)"/>
      <use xlink:href="#DejaVuSans-55" transform="translate(849.46875 0)"/>
      <use xlink:href="#DejaVuSans-4f" transform="translate(890.578125 0)"/>
      <use xlink:href="#DejaVuSans-47" transform="translate(918.359375 0)"/>
      <use xlink:href="#DejaVuSans-3" transform="translate(981.84375 0)"/>
      <use xlink:href="#DejaVuSans-49" transform="translate(1013.625 0)"/>
      <use xlink:href="#DejaVuSans-55" transform="translate(1048.828125 0)"/>
      <use xlink:href="#DejaVuSans-44" transform="translate(1089.9375 0)"/>
      <use xlink:href="#DejaVuSans-50" transform="translate(1151.21875 0)"/>
      <use xlink:href="#DejaVuSans-48" transform="translate(1248.625 0)"/>
     </g>
    </g>
    <g id="line2d_26">
     <path d="M 245.46375 123.45875 
L 253.46375 123.45875 
L 261.46375 123.45875 
" style="fill: none; stroke: #27ae60; stroke-width: 1.5; stroke-linecap: square"/>
     <g>
      <use xlink:href="#m56b26c99d3" x="253.46375" y="123.45875" style="fill: #27ae60; stroke: #27ae60"/>
     </g>
    </g>
    <g id="text_16">
     <!-- Measured base frame (5 mm offset removed) -->
     <g transform="translate(267.86375 126.25875) scale(0.08 -0.08)">
      <defs>
       <path id="DejaVuSans-30" d="M 628 4666 
L 1569 4666 
L 2759 1491 
L 3956 4666 
L 4897 4666 
L 4897 0 
L 4281 0 
L 4281 4097 
L 3078 897 
L 2444 897 
L 1241 4097 
L 1241 0 
L 628 0 
L 628 4666 
z
" transform="scale(0.015625)"/>
       <path id="DejaVuSans-13ae" d="M 4531 4863 
L 4531 4384 
L 3981 4384 
Q 3672 4384 3551 4259 
Q 3431 4134 3431 3809 
L 3431 3500 
L 4378 3500 
L 4378 3053 
L 3431 3053 
L 3431 0 
L 2853 0 
L 2853 3053 
L 1275 3053 
L 1275 0 
L 697 0 
L 697 3053 
L 147 3053 
L 147 3500 
L 697 3500 
L 697 3744 
Q 697 4328 969 4595 
Q 1241 4863 1831 4863 
L 2375 4863 
L 2375 4384 
L 1825 4384 
Q 1516 4384 1394 4259 
Q 1275 4134 1275 3809 
L 1275 3500 
L 2853 3500 
L 2853 3744 
Q 2853 4328 3125 4595 
Q 3397 4863 3988 4863 
L 4531 4863 
z
" transform="scale(0.015625)"/>
       <path id="DejaVuSans-59" d="M 191 3500 
L 800 3500 
L 1894 563 
L 2988 3500 
L 3597 3500 
L 2284 0 
L 1503 0 
L 191 3500 
z
" transform="scale(0.015625)"/>
      </defs>
      <use xlink:href="#DejaVuSans-30"/>
      <use xlink:href="#DejaVuSans-48" transform="translate(86.28125 0)"/>
      <use xlink:href="#DejaVuSans-44" transform="translate(147.8125 0)"/>
      <use xlink:href="#DejaVuSans-56" transform="translate(209.09375 0)"/>
      <use xlink:href="#DejaVuSans-58" transform="translate(261.1875 0)"/>
      <use xlink:href="#DejaVuSans-55" transform="translate(324.5625 0)"/>
      <use xlink:href="#DejaVuSans-48" transform="translate(363.46875 0)"/>
      <use xlink:href="#DejaVuSans-47" transform="translate(425 0)"/>
      <use xlink:href="#DejaVuSans-3" transform="translate(488.484375 0)"/>
      <use xlink:href="#DejaVuSans-45" transform="translate(520.265625 0)"/>
      <use xlink:href="#DejaVuSans-44" transform="translate(583.75 0)"/>
      <use xlink:href="#DejaVuSans-56" transform="translate(645.03125 0)"/>
      <use xlink:href="#DejaVuSans-48" transform="translate(697.125 0)"/>
      <use xlink:href="#DejaVuSans-3" transform="translate(758.65625 0)"/>
      <use xlink:href="#DejaVuSans-49" transform="translate(790.4375 0)"/>
      <use xlink:href="#DejaVuSans-55" transform="translate(825.640625 0)"/>
      <use xlink:href="#DejaVuSans-44" transform="translate(866.75 0)"/>
      <use xlink:href="#DejaVuSans-50" transform="translate(928.03125 0)"/>
      <use xlink:href="#DejaVuSans-48" transform="translate(1025.4375 0)"/>
      <use xlink:href="#DejaVuSans-3" transform="translate(1086.96875 0)"/>
      <use xlink:href="#DejaVuSans-b" transform="translate(1118.75 0)"/>
      <use xlink:href="#DejaVuSans-18" transform="translate(1157.765625 0)"/>
      <use xlink:href="#DejaVuSans-3" transform="translate(1221.390625 0)"/>
      <use xlink:href="#DejaVuSans-50" transform="translate(1253.171875 0)"/>
      <use xlink:href="#DejaVuSans-50" transform="translate(1350.578125 0)"/>
      <use xlink:href="#DejaVuSans-3" transform="translate(1447.984375 0)"/>
      <use xlink:href="#DejaVuSans-52" transform="translate(1479.765625 0)"/>
      <use xlink:href="#DejaVuSans-13ae" transform="translate(1540.953125 0)"/>
      <use xlink:href="#DejaVuSans-56" transform="translate(1609.84375 0)"/>
      <use xlink:href="#DejaVuSans-48" transform="translate(1661.9375 0)"/>
      <use xlink:href="#DejaVuSans-57" transform="translate(1723.46875 0)"/>
      <use xlink:href="#DejaVuSans-3" transform="translate(1762.671875 0)"/>
      <use xlink:href="#DejaVuSans-55" transform="translate(1794.453125 0)"/>
      <use xlink:href="#DejaVuSans-48" transform="translate(1833.359375 0)"/>
      <use xlink:href="#DejaVuSans-50" transform="translate(1894.890625 0)"/>
      <use xlink:href="#DejaVuSans-52" transform="translate(1992.296875 0)"/>
      <use xlink:href="#DejaVuSans-59" transform="translate(2053.484375 0)"/>
      <use xlink:href="#DejaVuSans-48" transform="translate(2112.671875 0)"/>
      <use xlink:href="#DejaVuSans-47" transform="translate(2174.203125 0)"/>
      <use xlink:href="#DejaVuSans-c" transform="translate(2237.6875 0)"/>
     </g>
    </g>
   </g>
  </g>
 </g>
 <defs>
  <clipPath id="pfeee2de8e0">
   <rect x="38.602344" y="26.16" width="418.597656" height="184.04"/>
  </clipPath>
 </defs>
</svg>
